<svg xmlns="http://www.w3.org/2000/svg" width="24" height="24" fill="none" viewBox="0 0 24 24"><path fill="#7C0AB1" stroke="#7C0AB1" stroke-width="1.8" d="M22 19.436v-9.033c0-.846-.417-1.638-1.116-2.115l-7.65-5.238a2.564 2.564 0 0 0-3.009.08l-7.22 5.536A2.564 2.564 0 0 0 2 10.701v8.735A2.564 2.564 0 0 0 4.564 22h14.872A2.564 2.564 0 0 0 22 19.436Z"/><path fill="#fff" d="M12.592 11.897H9.534a.704.704 0 0 1-.498-.212.728.728 0 0 1-.003-1.016.698.698 0 0 1 .5-.207h4.582a.686.686 0 0 1 .501.207.712.712 0 0 1-.017 1.016l-3.723 4.52h3.239a.688.688 0 0 1 .501.209.712.712 0 0 1 .204.51.728.728 0 0 1-.207.506.703.703 0 0 1-.498.211H9.372a.707.707 0 0 1-.501-.217.732.732 0 0 1-.204-.514.773.773 0 0 1 .207-.509l3.718-4.504Z"/></svg>