<svg xmlns="http://www.w3.org/2000/svg" width="24" height="24" fill="none" viewBox="0 0 24 24"><g stroke="#262A33" clip-path="url(#clip0_23_3146)"><path stroke-width="1.53" d="M17.934 10.377a.227.227 0 0 1-.428 0l-.927-2.618a.227.227 0 0 0-.138-.138l-2.618-.928a.227.227 0 0 1 0-.427l2.618-.927a.227.227 0 0 0 .138-.138l.927-2.618a.227.227 0 0 1 .428 0L18.86 5.2a.227.227 0 0 0 .138.138l2.618.927a.227.227 0 0 1 0 .427l-2.618.928a.227.227 0 0 0-.138.138l-.927 2.618Z"/><path stroke-linecap="round" stroke-linejoin="round" stroke-width="1.8" d="M7.714 22H4.448A2.457 2.457 0 0 1 2 19.535V16.25a2.457 2.457 0 0 1 2.448-2.465h3.266a2.457 2.457 0 0 1 2.45 2.465v3.286A2.457 2.457 0 0 1 7.713 22Zm11.837 0h-3.265a2.457 2.457 0 0 1-2.45-2.465V16.25a2.457 2.457 0 0 1 2.45-2.465h3.265A2.457 2.457 0 0 1 22 16.25v3.286A2.457 2.457 0 0 1 19.551 22Z" clip-rule="evenodd"/><path stroke-linecap="round" stroke-linejoin="round" stroke-width="1.8" d="M7.776 21.955H4.511a2.457 2.457 0 0 1-2.45-2.465v-3.286a2.457 2.457 0 0 1 2.45-2.465h3.265a2.457 2.457 0 0 1 2.449 2.465v3.286a2.457 2.457 0 0 1-2.449 2.465Zm0-11.74H4.511A2.457 2.457 0 0 1 2.06 7.75V4.465A2.457 2.457 0 0 1 4.512 2h3.265a2.457 2.457 0 0 1 2.449 2.465V7.75a2.457 2.457 0 0 1-2.449 2.466Z" clip-rule="evenodd"/></g><defs><clipPath id="clip0_23_3146"><path fill="#fff" d="M0 0h24v24H0z"/></clipPath></defs></svg>